<svg width="25" height="24" viewBox="0 0 25 24" fill="none" xmlns="http://www.w3.org/2000/svg">
<path d="M18.4815 18.7248C17.1121 16.9175 14.9424 15.75 12.5 15.75C10.0576 15.75 7.88789 16.9175 6.51846 18.7248M18.4815 18.7248C20.3335 17.0763 21.5 14.6744 21.5 12C21.5 7.02944 17.4706 3 12.5 3C7.52944 3 3.5 7.02944 3.5 12C3.5 14.6744 4.6665 17.0763 6.51846 18.7248M18.4815 18.7248C16.8915 20.1401 14.7962 21 12.5 21C10.2038 21 8.10851 20.1401 6.51846 18.7248M15.5 9.75C15.5 11.4069 14.1569 12.75 12.5 12.75C10.8431 12.75 9.5 11.4069 9.5 9.75C9.5 8.09315 10.8431 6.75 12.5 6.75C14.1569 6.75 15.5 8.09315 15.5 9.75Z" stroke="black" stroke-width="1.5" stroke-linecap="round" stroke-linejoin="round"/>
</svg>
