<svg width="21" height="20" viewBox="0 0 21 20" fill="none" xmlns="http://www.w3.org/2000/svg">
<path d="M16.4815 16.7248C15.1121 14.9175 12.9424 13.75 10.5 13.75C8.05761 13.75 5.88789 14.9175 4.51846 16.7248M16.4815 16.7248C18.3335 15.0763 19.5 12.6744 19.5 10C19.5 5.02944 15.4706 1 10.5 1C5.52944 1 1.5 5.02944 1.5 10C1.5 12.6744 2.6665 15.0763 4.51846 16.7248M16.4815 16.7248C14.8915 18.1401 12.7962 19 10.5 19C8.20383 19 6.10851 18.1401 4.51846 16.7248M13.5 7.75C13.5 9.40685 12.1569 10.75 10.5 10.75C8.84315 10.75 7.5 9.40685 7.5 7.75C7.5 6.09315 8.84315 4.75 10.5 4.75C12.1569 4.75 13.5 6.09315 13.5 7.75Z" stroke="currentColor" stroke-width="1.5" stroke-linecap="round" stroke-linejoin="round"/>
</svg>
